<svg height="2046" width="720" xmlns="http://www.w3.org/2000/svg">
<rect height="2046" fill="#555" width="720"></rect>
<text fill="#7f7" font-family="Courier New" font-size="12" xml:space="preserve">
<tspan x="10" y="26"></tspan>
<tspan x="10" y="42">&gt; npmdoc-protobufjs@0.0.1 test /home/travis/build/npmdoc/node-npmdoc-protobufjs</tspan>
<tspan x="10" y="58">&gt; (set -e; export PORT=$(utility2 shServerPortRandom); utility2 test test.js)</tspan>
<tspan x="10" y="74"></tspan>
<tspan x="10" y="90"></tspan>
<tspan x="10" y="106">[MODE_BUILD=npmTest] - 2017-04-03T16:17:43Z - npm-testing /home/travis/build/npmdoc/node-npmdoc-\</tspan>
<tspan x="10" y="122">protobufjs</tspan>
<tspan x="10" y="138"></tspan>
<tspan x="10" y="154"></tspan>
<tspan x="10" y="170">covering $ /home/travis/.nvm/versions/node/v6.10.1/bin/node /home/travis/build/npmdoc/node-npmdo\</tspan>
<tspan x="10" y="186">c-protobufjs/test.js</tspan>
<tspan x="10" y="202">merging file:///home/travis/build/npmdoc/node-npmdoc-protobufjs/tmp/build/test-report.json to te\</tspan>
<tspan x="10" y="218">st-report</tspan>
<tspan x="10" y="234">&gt; server listening on http-port 34467</tspan>
<tspan x="10" y="250">usage: test.js &lt;encode|decode|encode-browser|decode-browser|fromjson&gt; [iterations=10000000]</tspan>
<tspan x="10" y="266">created apidoc file:///home/travis/build/npmdoc/node-npmdoc-protobufjs/tmp/build/apidoc.html</tspan>
<tspan x="10" y="282"></tspan>
<tspan x="10" y="298"></tspan>
<tspan x="10" y="314">browserTest - created electron entry-page /home/travis/build/npmdoc/node-npmdoc-protobufjs/tmp/e\</tspan>
<tspan x="10" y="330">lectron.15b349b9ace0.294afcd775ec6.html</tspan>
<tspan x="10" y="346"></tspan>
<tspan x="10" y="362">Xlib:  extension "RANDR" missing on display ":99.0".</tspan>
<tspan x="10" y="378">merging file:///home/travis/build/npmdoc/node-npmdoc-protobufjs/tmp/build/test-report.json to te\</tspan>
<tspan x="10" y="394">st-report</tspan>
<tspan x="10" y="410">Xlib:  extension "RANDR" missing on display ":99.0".</tspan>
<tspan x="10" y="426">[7475:0403/161745:WARNING:audio_manager.cc(314)] Multiple instances of AudioManager detected</tspan>
<tspan x="10" y="442">[7475:0403/161745:WARNING:audio_manager.cc(275)] Multiple instances of AudioManager detected</tspan>
<tspan x="10" y="458">[7494:0403/161745:ERROR:sandbox_linux.cc(343)] InitializeSandbox() called with multiple threads \</tspan>
<tspan x="10" y="474">in process gpu-process. </tspan>
<tspan x="10" y="490">[7475:0403/161745:ERROR:browser_gpu_channel_host_factory.cc(131)] Failed to create channel.</tspan>
<tspan x="10" y="506">[node test-case 1 of 6 passed] - testCase_buildLib_default</tspan>
<tspan x="10" y="522">[node test-case 2 of 6 passed] - testCase_buildReadme_default</tspan>
<tspan x="10" y="538">[node test-case 3 of 6 passed] - testCase_buildTest_default</tspan>
<tspan x="10" y="554"></tspan>
<tspan x="10" y="570">browserTest - created electron entry-page /home/travis/build/npmdoc/node-npmdoc-protobufjs/tmp/e\</tspan>
<tspan x="10" y="586">lectron.15b349b9e840.dc6ec45047a6c.html</tspan>
<tspan x="10" y="602"></tspan>
<tspan x="10" y="618"></tspan>
<tspan x="10" y="634">browserTest - opened url /home/travis/build/npmdoc/node-npmdoc-protobufjs/tmp/build/apidoc.html</tspan>
<tspan x="10" y="650"></tspan>
<tspan x="10" y="666">Xlib:  extension "RANDR" missing on display ":99.0".</tspan>
<tspan x="10" y="682">&gt; server listening on http-port 64782</tspan>
<tspan x="10" y="698">merging file:///home/travis/build/npmdoc/node-npmdoc-protobufjs/tmp/build/test-report.json to te\</tspan>
<tspan x="10" y="714">st-report</tspan>
<tspan x="10" y="730">Xlib:  extension "RANDR" missing on display ":99.0".</tspan>
<tspan x="10" y="746">[7533:0403/161746:WARNING:audio_manager.cc(314)] Multiple instances of AudioManager detected</tspan>
<tspan x="10" y="762">[7533:0403/161746:WARNING:audio_manager.cc(275)] Multiple instances of AudioManager detected</tspan>
<tspan x="10" y="778">[7563:0403/161746:ERROR:sandbox_linux.cc(343)] InitializeSandbox() called with multiple threads \</tspan>
<tspan x="10" y="794">in process gpu-process. </tspan>
<tspan x="10" y="810">[7533:0403/161746:ERROR:browser_gpu_channel_host_factory.cc(131)] Failed to create channel.</tspan>
<tspan x="10" y="826"></tspan>
<tspan x="10" y="842">browserTest - opened url http://127.0.0.1:34467?modeTest=1</tspan>
<tspan x="10" y="858"></tspan>
<tspan x="10" y="874">[7533:0403/161748:INFO:CONSOLE(245)] "----------|-----------|-----------|-----------|-----------\</tspan>
<tspan x="10" y="890">|</tspan>
<tspan x="10" y="906">File      |   % Stmts |% Branches |   % Funcs |   % Lines |</tspan>
<tspan x="10" y="922">----------|-----------|-----------|-----------|-----------|</tspan>
<tspan x="10" y="938">----------|-----------|-----------|-----------|-----------|</tspan>
<tspan x="10" y="954">All files |       100 |       100 |       100 |       100 |</tspan>
<tspan x="10" y="970">----------|-----------|-----------|-----------|-----------|</tspan>
<tspan x="10" y="986">", source: file:///home/travis/build/npmdoc/node-npmdoc-protobufjs/tmp/electron.15b349b9e840.dc6\</tspan>
<tspan x="10" y="1002">ec45047a6c.html (245)</tspan>
<tspan x="10" y="1018">[7533:0403/161748:INFO:CONSOLE(245)] "created coverage file:///tmp/build/coverage.html/index.htm\</tspan>
<tspan x="10" y="1034">l", source: file:///home/travis/build/npmdoc/node-npmdoc-protobufjs/tmp/electron.15b349b9e840.dc\</tspan>
<tspan x="10" y="1050">6ec45047a6c.html (245)</tspan>
<tspan x="10" y="1066">[node test-case 4 of 6 passed] - testCase_buildApp_default</tspan>
<tspan x="10" y="1082"></tspan>
<tspan x="10" y="1098">browserTest - created screenCapture file:///home/travis/build/npmdoc/node-npmdoc-protobufjs/tmp/\</tspan>
<tspan x="10" y="1114">build/screenCapture.npmTest.browser._2Fhome_2Ftravis_2Fbuild_2Fnpmdoc_2Fnode-npmdoc-protobufjs_2\</tspan>
<tspan x="10" y="1130">Ftmp_2Fbuild_2Fapidoc.html.png</tspan>
<tspan x="10" y="1146"></tspan>
<tspan x="10" y="1162">browserTest - created screenCapture file:///home/travis/build/npmdoc/node-npmdoc-protobufjs/tmp/\</tspan>
<tspan x="10" y="1178">build/screenCapture.npmTest.browser._2Fhome_2Ftravis_2Fbuild_2Fnpmdoc_2Fnode-npmdoc-protobufjs_2\</tspan>
<tspan x="10" y="1194">Ftmp_2Fbuild_2Fapidoc.html.html</tspan>
<tspan x="10" y="1210"></tspan>
<tspan x="10" y="1226">browserTest - exit-code 0 - /home/travis/build/npmdoc/node-npmdoc-protobufjs/tmp/build/apidoc.ht\</tspan>
<tspan x="10" y="1242">ml</tspan>
<tspan x="10" y="1258"></tspan>
<tspan x="10" y="1274">[node test-case 5 of 6 passed] - testCase_buildApidoc_default</tspan>
<tspan x="10" y="1290"></tspan>
<tspan x="10" y="1306">browserTest - created screenCapture file:///home/travis/build/npmdoc/node-npmdoc-protobufjs/tmp/\</tspan>
<tspan x="10" y="1322">build/screenCapture.npmTest.browser..png</tspan>
<tspan x="10" y="1338"></tspan>
<tspan x="10" y="1354">browserTest - created screenCapture file:///home/travis/build/npmdoc/node-npmdoc-protobufjs/tmp/\</tspan>
<tspan x="10" y="1370">build/screenCapture.npmTest.browser..html</tspan>
<tspan x="10" y="1386"></tspan>
<tspan x="10" y="1402">browserTest - exit-code 0 - http://127.0.0.1:34467?modeTest=1</tspan>
<tspan x="10" y="1418"></tspan>
<tspan x="10" y="1434"></tspan>
<tspan x="10" y="1450">browserTest - merged coverage from /home/travis/build/npmdoc/node-npmdoc-protobufjs/tmp/coverage\</tspan>
<tspan x="10" y="1466">.npmTest.browser.%2F.json</tspan>
<tspan x="10" y="1482"></tspan>
<tspan x="10" y="1498"></tspan>
<tspan x="10" y="1514">browserTest - merging test-report from /home/travis/build/npmdoc/node-npmdoc-protobufjs/tmp/test\</tspan>
<tspan x="10" y="1530">-report.npmTest.browser.%2F.json</tspan>
<tspan x="10" y="1546"></tspan>
<tspan x="10" y="1562">[node test-case 6 of 6 passed] - testCase_webpage_default</tspan>
<tspan x="10" y="1578">-------------------------------|-----------|-----------|-----------|-----------|</tspan>
<tspan x="10" y="1594">File                           |   % Stmts |% Branches |   % Funcs |   % Lines |</tspan>
<tspan x="10" y="1610">-------------------------------|-----------|-----------|-----------|-----------|</tspan>
<tspan x="10" y="1626">   node-npmdoc-protobufjs/     |       100 |       100 |       100 |       100 |</tspan>
<tspan x="10" y="1642">      example.js               |       100 |       100 |       100 |       100 |</tspan>
<tspan x="10" y="1658">      lib.npmdoc_protobufjs.js |       100 |       100 |       100 |       100 |</tspan>
<tspan x="10" y="1674">      test.js                  |       100 |       100 |       100 |       100 |</tspan>
<tspan x="10" y="1690">-------------------------------|-----------|-----------|-----------|-----------|</tspan>
<tspan x="10" y="1706">All files                      |       100 |       100 |       100 |       100 |</tspan>
<tspan x="10" y="1722">-------------------------------|-----------|-----------|-----------|-----------|</tspan>
<tspan x="10" y="1738"></tspan>
<tspan x="10" y="1754">created coverage file:///home/travis/build/npmdoc/node-npmdoc-protobufjs/tmp/build/coverage.html\</tspan>
<tspan x="10" y="1770">/index.html</tspan>
<tspan x="10" y="1786">merging file:///home/travis/build/npmdoc/node-npmdoc-protobufjs/tmp/build/test-report.json to te\</tspan>
<tspan x="10" y="1802">st-report</tspan>
<tspan x="10" y="1818"></tspan>
<tspan x="10" y="1834">-------------------------------------------------------</tspan>
<tspan x="10" y="1850">| test-report - buildNpmdoc - node - linux v6.10.1 - 2017-04-03T16:16:59.663Z</tspan>
<tspan x="10" y="1866">|   55821 ms            0 failed        6 passed      |</tspan>
<tspan x="10" y="1882">-------------------------------------------------------</tspan>
<tspan x="10" y="1898"></tspan>
<tspan x="10" y="1914">created test-report file:///home/travis/build/npmdoc/node-npmdoc-protobufjs/tmp/build/test-repor\</tspan>
<tspan x="10" y="1930">t.html</tspan>
<tspan x="10" y="1946"></tspan>
<tspan x="10" y="1962"></tspan>
<tspan x="10" y="1978">npmTest - 0 failed tests</tspan>
<tspan x="10" y="1994"></tspan>
<tspan x="10" y="2010"></tspan>
<tspan x="10" y="2026">[MODE_BUILD=npmTest] - 2017-04-03T16:17:58Z - EXIT_CODE - 0</tspan>
</text>
</svg>
